<?xml version="1.0" ?>
<!DOCTYPE svg  PUBLIC '-//W3C//DTD SVG 1.1//EN'  'http://www.w3.org/Graphics/SVG/1.1/DTD/svg11.dtd'>
<!-- Uploaded to: SVG Repo, www.svgrepo.com, Generator: SVG Repo Mixer Tools -->
<svg width="800px" height="800px" viewBox="0 0 512 512" id="Layer_1" version="1.1" xml:space="preserve" xmlns="http://www.w3.org/2000/svg" xmlns:xlink="http://www.w3.org/1999/xlink">
<style type="text/css">
	.st0{fill:none;stroke:#000000;stroke-width:16;}
</style>
<g>
<g id="XMLID_2_">
<line class="st0" id="XMLID_5_" x1="117.5" x2="75" y1="394.5" y2="437"/>
<line class="st0" id="XMLID_4_" x1="437" x2="328.1" y1="75" y2="183.9"/>
<g id="XMLID_1_">
<path d="M256,16c32.4,0,63.8,6.3,93.4,18.9c28.6,12.1,54.2,29.4,76.3,51.4c22,22,39.4,47.7,51.4,76.3      c12.5,29.6,18.9,61,18.9,93.4s-6.3,63.8-18.9,93.4c-12.1,28.6-29.4,54.2-51.4,76.3c-22,22-47.7,39.4-76.3,51.4      c-29.6,12.5-61,18.9-93.4,18.9s-63.8-6.3-93.4-18.9c-28.6-12.1-54.2-29.4-76.3-51.4c-22-22-39.4-47.7-51.4-76.3      C22.3,319.8,16,288.4,16,256s6.3-63.8,18.9-93.4c12.1-28.6,29.4-54.2,51.4-76.3c22-22,47.7-39.4,76.3-51.4      C192.2,22.3,223.6,16,256,16 M256,0C114.6,0,0,114.6,0,256s114.6,256,256,256s256-114.6,256-256S397.4,0,256,0L256,0z" id="XMLID_14_"/>
</g>
<g id="XMLID_953_">
<path class="st0" d="M204.7,164.9c13.3,14.5,16.8,34.1,8,43.8c-8.8,9.7-26.8,5.7-40.1-8.8      c-13.3-14.5-16.8-34.1-8-43.8C173.5,146.5,191.4,150.4,204.7,164.9z" id="XMLID_958_"/>
<path class="st0" d="M276.1,242.9c13.3,14.5,16.8,34.1,8,43.8c-8.9,9.7-26.8,5.8-40.1-8.8      c-13.3-14.5-16.9-34.1-8-43.8C244.9,224.5,262.8,228.4,276.1,242.9z" id="XMLID_957_"/>
<path class="st0" d="M348.9,322.5c13.3,14.5,16.9,34.1,8,43.8s-26.8,5.7-40.1-8.8c-13.3-14.5-16.9-34.1-8-43.8      C317.7,304.1,335.6,308,348.9,322.5z" id="XMLID_956_"/>
<path class="st0" d="M190.3,347.4c18.8,0,34,11.1,34,24.8c0,13.7-15.2,24.8-34,24.8c-18.8,0-34-11.1-34-24.8      C156.3,358.5,171.6,347.4,190.3,347.4z" id="XMLID_955_"/>
<path class="st0" d="M385.5,397.4c32-105.1-64.1-122.6-64.1-122.6c-8-78.8-72.1-78.8-72.1-78.8      C233.2,91,121,108.5,121,108.5s-16,122.6,80.1,140.1c0,0,0,70.1,72.1,78.8C273.3,327.4,289.3,432.5,385.5,397.4z" id="XMLID_954_"/>
</g>
</g>
</g>
</svg>